<svg id="Layer_1" data-name="Layer 1" xmlns="http://www.w3.org/2000/svg" viewBox="0 0 512 311.38"><defs><style>.cls-1{fill:#fff;}</style></defs><title>email white</title><path class="cls-1" d="M494.54,100H17.46A17.49,17.49,0,0,0,0,117.46V393.92a17.48,17.48,0,0,0,17.46,17.46H494.54A17.48,17.48,0,0,0,512,393.92V117.46A17.49,17.49,0,0,0,494.54,100ZM30,143l143.51,95.38L30,363.33ZM256,257.16,64.73,130H447.27Zm-56.52-1.52,46.85,31.15a17.42,17.42,0,0,0,19.34,0l46.85-31.15L456.93,381.35H55.07Zm139-17.23L482,143V363.33Z" transform="translate(0 -100)"/></svg>